<?xml version="1.0" encoding="UTF-8"?>
<svg xmlns="http://www.w3.org/2000/svg" viewBox="0 0 64 64" width="64" height="64" role="img">
  <title>ToraSEO favicon 64x64</title>
  <desc>Simplified tora chibi face on orange rounded square background, optimized for 64 pixel favicon.</desc>
  <rect x="0" y="0" width="64" height="64" rx="12" fill="#FF6B35" stroke="#2A1810" stroke-width="1.5"/>
  <g transform="translate(8, 6) scale(0.4)">
    <circle cx="60" cy="62" r="48" fill="#FFFFFF"/>
    <ellipse cx="28" cy="28" rx="10" ry="13" fill="#FFFFFF" stroke="#2A1810" stroke-width="3" transform="rotate(-25 28 28)"/>
    <ellipse cx="92" cy="28" rx="10" ry="13" fill="#FFFFFF" stroke="#2A1810" stroke-width="3" transform="rotate(25 92 28)"/>
    <path d="M 22 18 Q 28 8 36 14 Q 30 22 22 18 Z" fill="#1A0F08"/>
    <path d="M 50 8 Q 60 0 70 8 Q 60 16 50 8 Z" fill="#1A0F08"/>
    <path d="M 84 14 Q 92 8 98 18 Q 90 22 84 14 Z" fill="#1A0F08"/>
    <circle cx="44" cy="65" r="11" fill="#1A0F08"/>
    <circle cx="76" cy="65" r="11" fill="#1A0F08"/>
    <circle cx="46" cy="61" r="4" fill="#FFB800"/>
    <circle cx="78" cy="61" r="4" fill="#FFB800"/>
    <ellipse cx="60" cy="82" rx="5" ry="4" fill="#1A0F08"/>
  </g>
</svg>
