<?xml version="1.0" encoding="UTF-8"?>
<svg xmlns="http://www.w3.org/2000/svg" viewBox="0 0 220 220" width="440" height="440" role="img">
  <title>ToraSEO chibi tiger — surprised pose</title>
  <desc>Chibi tiger mascot looking shocked with wide eyes, alert ears and shock marks indicating an error was found.</desc>
  <defs>
    <radialGradient id="eyeGrad" cx="0.4" cy="0.35" r="0.7">
      <stop offset="0%" stop-color="#FFD27A"/>
      <stop offset="50%" stop-color="#FFA500"/>
      <stop offset="100%" stop-color="#8B4513"/>
    </radialGradient>
    <radialGradient id="bodyGrad" cx="0.5" cy="0.4" r="0.8">
      <stop offset="0%" stop-color="#FF8555"/>
      <stop offset="100%" stop-color="#E85A28"/>
    </radialGradient>
  </defs>
  <g transform="translate(50, 25)">
    <ellipse cx="60" cy="180" rx="42" ry="6" fill="#1A1A1A" opacity="0.15"/>
    <g stroke="#2A1810" stroke-width="2" stroke-linejoin="round">
      <ellipse cx="60" cy="120" rx="42" ry="35" fill="url(#bodyGrad)"/>
      <ellipse cx="42" cy="148" rx="10" ry="8" fill="url(#bodyGrad)"/>
      <ellipse cx="78" cy="148" rx="10" ry="8" fill="url(#bodyGrad)"/>
      <ellipse cx="14" cy="105" rx="9" ry="14" fill="url(#bodyGrad)" transform="rotate(-15 14 105)"/>
      <ellipse cx="106" cy="105" rx="9" ry="14" fill="url(#bodyGrad)" transform="rotate(15 106 105)"/>
    </g>
    <path d="M 100 130 Q 130 130 130 110" stroke="#2A1810" stroke-width="13" fill="none" stroke-linecap="round"/>
    <path d="M 100 130 Q 130 130 130 110" stroke="#FF6B35" stroke-width="10" fill="none" stroke-linecap="round"/>
    <g stroke="#2A1810" stroke-width="2" stroke-linejoin="round">
      <circle cx="60" cy="62" r="48" fill="url(#bodyGrad)"/>
      <ellipse cx="28" cy="20" rx="10" ry="14" fill="url(#bodyGrad)" transform="rotate(-15 28 20)"/>
      <ellipse cx="92" cy="20" rx="10" ry="14" fill="url(#bodyGrad)" transform="rotate(15 92 20)"/>
    </g>
    <ellipse cx="60" cy="125" rx="32" ry="22" fill="#FFFFFF"/>
    <ellipse cx="60" cy="72" rx="32" ry="26" fill="#FFFFFF"/>
    <ellipse cx="28" cy="22" rx="5" ry="8" fill="#FFB8A0" transform="rotate(-15 28 22)"/>
    <ellipse cx="92" cy="22" rx="5" ry="8" fill="#FFB8A0" transform="rotate(15 92 22)"/>
    <path d="M 22 12 Q 28 2 36 8 Q 30 16 22 12 Z" fill="#1A0F08"/>
    <path d="M 50 8 Q 60 0 70 8 Q 60 16 50 8 Z" fill="#1A0F08"/>
    <path d="M 84 8 Q 92 2 98 12 Q 90 16 84 8 Z" fill="#1A0F08"/>
    <path d="M 18 38 Q 14 50 22 60 Q 28 50 18 38 Z" fill="#1A0F08"/>
    <path d="M 102 38 Q 106 50 98 60 Q 92 50 102 38 Z" fill="#1A0F08"/>
    <path d="M 50 28 Q 54 36 50 44 Q 46 36 50 28 Z" fill="#1A0F08"/>
    <path d="M 70 28 Q 66 36 70 44 Q 74 36 70 28 Z" fill="#1A0F08"/>
    <path d="M 18 100 Q 14 115 22 128 Q 28 115 18 100 Z" fill="#1A0F08"/>
    <path d="M 102 100 Q 106 115 98 128 Q 92 115 102 100 Z" fill="#1A0F08"/>
    <path d="M 32 105 Q 28 118 36 128 L 32 105 Z" fill="#1A0F08"/>
    <path d="M 88 105 Q 92 118 84 128 L 88 105 Z" fill="#1A0F08"/>
    <circle cx="44" cy="65" r="13" fill="url(#eyeGrad)" stroke="#2A1810" stroke-width="2"/>
    <circle cx="76" cy="65" r="13" fill="url(#eyeGrad)" stroke="#2A1810" stroke-width="2"/>
    <circle cx="44" cy="66" r="7" fill="#1A0F08"/>
    <circle cx="76" cy="66" r="7" fill="#1A0F08"/>
    <circle cx="46" cy="63" r="3" fill="#FFFFFF"/>
    <circle cx="78" cy="63" r="3" fill="#FFFFFF"/>
    <circle cx="42" cy="69" r="1.5" fill="#FFFFFF"/>
    <circle cx="74" cy="69" r="1.5" fill="#FFFFFF"/>
    <ellipse cx="60" cy="82" rx="4" ry="3" fill="#1A0F08"/>
    <ellipse cx="60" cy="92" rx="5" ry="6" stroke="#2A1810" stroke-width="2" fill="#7F1D1D"/>
    <line x1="-5" y1="35" x2="2" y2="42" stroke="#FFB800" stroke-width="3" stroke-linecap="round"/>
    <line x1="125" y1="35" x2="118" y2="42" stroke="#FFB800" stroke-width="3" stroke-linecap="round"/>
    <line x1="-2" y1="60" x2="6" y2="60" stroke="#FFB800" stroke-width="3" stroke-linecap="round"/>
    <line x1="122" y1="60" x2="114" y2="60" stroke="#FFB800" stroke-width="3" stroke-linecap="round"/>
  </g>
</svg>
