<?xml version="1.0" encoding="UTF-8"?>
<svg xmlns="http://www.w3.org/2000/svg" viewBox="0 0 220 220" width="440" height="440" role="img">
  <title>ToraSEO chibi tiger — sleeping pose</title>
  <desc>Chibi tiger mascot sleeping curled up with closed eyes and floating Z letters indicating idle mode.</desc>
  <defs>
    <radialGradient id="bodyGrad" cx="0.5" cy="0.4" r="0.8">
      <stop offset="0%" stop-color="#FF8555"/>
      <stop offset="100%" stop-color="#E85A28"/>
    </radialGradient>
  </defs>
  <g transform="translate(35, 30)">
    <ellipse cx="65" cy="172" rx="55" ry="7" fill="#1A1A1A" opacity="0.15"/>
    <g stroke="#2A1810" stroke-width="2" stroke-linejoin="round">
      <ellipse cx="65" cy="135" rx="50" ry="25" fill="url(#bodyGrad)"/>
      <ellipse cx="35" cy="155" rx="9" ry="6" fill="url(#bodyGrad)"/>
      <ellipse cx="55" cy="158" rx="9" ry="6" fill="url(#bodyGrad)"/>
    </g>
    <path d="M 110 130 Q 130 125 128 110 Q 125 100 115 105" stroke="#2A1810" stroke-width="13" fill="none" stroke-linecap="round"/>
    <path d="M 110 130 Q 130 125 128 110 Q 125 100 115 105" stroke="#FF6B35" stroke-width="10" fill="none" stroke-linecap="round"/>
    <g stroke="#2A1810" stroke-width="2" stroke-linejoin="round">
      <circle cx="65" cy="80" r="42" fill="url(#bodyGrad)"/>
      <ellipse cx="38" cy="50" rx="9" ry="11" fill="url(#bodyGrad)" transform="rotate(-40 38 50)"/>
      <ellipse cx="92" cy="50" rx="9" ry="11" fill="url(#bodyGrad)" transform="rotate(40 92 50)"/>
    </g>
    <ellipse cx="65" cy="138" rx="38" ry="14" fill="#FFFFFF"/>
    <ellipse cx="65" cy="88" rx="28" ry="22" fill="#FFFFFF"/>
    <ellipse cx="38" cy="52" rx="4" ry="6" fill="#FFB8A0" transform="rotate(-40 38 52)"/>
    <ellipse cx="92" cy="52" rx="4" ry="6" fill="#FFB8A0" transform="rotate(40 92 52)"/>
    <path d="M 28 30 Q 35 22 42 28 Q 36 36 28 30 Z" fill="#1A0F08"/>
    <path d="M 55 22 Q 65 14 75 22 Q 65 30 55 22 Z" fill="#1A0F08"/>
    <path d="M 88 30 Q 95 22 102 30 Q 96 36 88 30 Z" fill="#1A0F08"/>
    <path d="M 22 56 Q 18 68 26 78 Q 32 68 22 56 Z" fill="#1A0F08"/>
    <path d="M 108 56 Q 112 68 104 78 Q 98 68 108 56 Z" fill="#1A0F08"/>
    <path d="M 55 42 Q 60 50 55 58 Q 50 50 55 42 Z" fill="#1A0F08"/>
    <path d="M 75 42 Q 70 50 75 58 Q 80 50 75 42 Z" fill="#1A0F08"/>
    <path d="M 22 118 Q 18 130 26 142 Q 32 130 22 118 Z" fill="#1A0F08"/>
    <path d="M 108 118 Q 112 130 104 142 Q 98 130 108 118 Z" fill="#1A0F08"/>
    <path d="M 43 80 Q 51 86 59 80" stroke="#2A1810" stroke-width="3" fill="none" stroke-linecap="round"/>
    <path d="M 71 80 Q 79 86 87 80" stroke="#2A1810" stroke-width="3" fill="none" stroke-linecap="round"/>
    <ellipse cx="65" cy="95" rx="3.5" ry="2.5" fill="#1A0F08"/>
    <path d="M 60 102 Q 65 105 70 102" stroke="#2A1810" stroke-width="2" fill="none" stroke-linecap="round"/>
    <text x="135" y="50" font-family="-apple-system, sans-serif" font-size="22" font-weight="500" fill="#4ECDC4">Z</text>
    <text x="148" y="35" font-family="-apple-system, sans-serif" font-size="14" font-weight="500" fill="#4ECDC4" opacity="0.7">z</text>
    <text x="158" y="22" font-family="-apple-system, sans-serif" font-size="10" font-weight="500" fill="#4ECDC4" opacity="0.5">z</text>
  </g>
</svg>
